<svg version="1.1" xmlns="http://www.w3.org/2000/svg" viewBox="330 510 1360 1050">
<defs>
	<linearGradient id="Gradient1" gradientUnits="userSpaceOnUse" x1="801.319" y1="1034.35" x2="813.686" y2="798.298">
		<stop class="stop0" offset="0" stop-opacity="1" stop-color="rgb(249,168,145)"/>
		<stop class="stop1" offset="1" stop-opacity="1" stop-color="rgb(251,209,190)"/>
	</linearGradient>
</defs>
<path transform="translate(0,0)" fill="rgb(83,54,94)" d="M 1086.16 526.497 C 1217.87 523.294 1347.87 556.816 1461.61 623.311 C 1660.22 741.445 1777.97 967.058 1619.95 1172.21 C 1534.01 1283.78 1404.75 1352.71 1269.95 1386.73 C 1268.5 1392.82 1267.06 1398.94 1265.35 1404.97 C 1254.98 1441.53 1234.43 1482.13 1199.8 1501.2 C 1149.61 1528.84 983.706 1523.99 927.322 1507.73 C 895.339 1498.5 876.514 1474.29 861.003 1446.37 C 849.942 1424.13 844.183 1406.56 839.421 1382.25 C 751.763 1355.34 676.603 1323.6 602.723 1267.96 C 568.566 1309.33 526.066 1340.13 470.157 1315.74 C 457.221 1310.09 443.29 1295.04 439.988 1281.44 C 429.521 1238.31 453.583 1172.58 473.892 1134.53 C 452.712 1102.57 439.856 1074.03 430.217 1037.01 C 404.825 1033.11 359.387 1027.63 355.658 994.989 C 351.25 956.403 401.537 946.235 430.185 943.679 C 439.333 909.772 453.594 877.456 472.478 847.845 C 453.499 811.06 434.361 754.316 437.917 712.234 C 441.572 668.986 483.272 652.918 521.719 657.968 C 553.702 662.169 577.687 682.319 596.94 707.81 C 621.106 690.244 642.363 671.87 667.813 655.128 C 791.709 572.322 937.14 527.605 1086.16 526.497 z"/>
<path transform="translate(0,0)" fill="rgb(255,253,250)" d="M 457.233 940.51 C 459.475 932.978 463.064 919.492 467.662 913.612 C 510.854 858.378 576.658 809.75 637.296 776.964 C 678.858 754.216 722.332 735.151 767.22 719.986 C 998.022 642.233 1289.33 652.639 1503.09 775.371 C 1438.26 808.045 1431.17 919.139 1462.28 975.979 C 1477.42 1003.64 1497.12 1028.63 1528.15 1038.52 C 1548.13 1044.84 1569.81 1042.86 1588.31 1033.03 C 1636.19 1007.59 1646.17 951.548 1647.73 902.467 C 1652.58 909.303 1660.45 920.343 1663.42 928.336 C 1670.94 948.593 1669.95 983.118 1667.08 1003.86 C 1664.47 1022.81 1637.48 1048.8 1628.25 1064.98 C 1623.6 1081.65 1616.27 1084.02 1601.8 1091.16 C 1568.89 1118.27 1547.42 1135.21 1509.27 1156.51 C 1361.69 1238.91 1174.38 1271.22 1007.2 1261.93 C 997.939 1262.31 986.292 1261.39 976.821 1260.68 C 796.095 1247.25 601.884 1193.65 470.981 1061.53 C 463.594 1054.07 459.474 1048.66 455.852 1038.97 C 488.687 1039.96 516.739 1038.64 545.146 1020.52 C 561.931 1002.67 564.462 974.033 545.366 957.278 C 524.778 939.214 483.175 940.615 457.233 940.51 z"/>
<path transform="translate(0,0)" fill="rgb(207,182,213)" d="M 455.852 1038.97 C 488.687 1039.96 516.739 1038.64 545.146 1020.52 C 556.388 1071.23 614.819 1122.78 657.176 1150.73 C 729.806 1198.67 827.605 1232.48 913.708 1247.4 C 929.659 1250.18 945.675 1252.57 961.743 1254.57 C 977.299 1256.51 992.449 1256.65 1007.2 1261.93 C 997.939 1262.31 986.292 1261.39 976.821 1260.68 C 796.095 1247.25 601.884 1193.65 470.981 1061.53 C 463.594 1054.07 459.474 1048.66 455.852 1038.97 z"/>
<path transform="translate(0,0)" fill="rgb(247,177,152)" d="M 1541.01 1069.02 C 1549.5 1046.63 1569.24 1042.5 1591.1 1043.65 C 1600.82 1044.16 1613.89 1047.16 1620.8 1054.26 C 1623.3 1056.82 1625.21 1061.71 1628.25 1064.98 C 1623.6 1081.65 1616.27 1084.02 1601.8 1091.16 C 1595.03 1088.19 1570.03 1093.6 1558.87 1087.91 C 1548.59 1082.66 1545.52 1079.31 1541.01 1069.02 z"/>
<path transform="translate(0,0)" fill="rgb(83,54,94)" d="M 689.588 1051.79 C 687.593 1048.73 685.671 1045.63 683.825 1042.48 C 658.888 998.78 652.217 947.002 665.264 898.412 C 676.678 856.17 703.67 817.726 742.135 796.076 C 772.904 778.868 809.306 774.772 843.13 784.712 C 924.273 808.335 965.605 902.256 950.683 980.95 C 949.022 989.711 946.893 997.75 944.335 1006.28 C 947.099 1011.19 946.469 1012.13 944.755 1018.59 C 933.464 1061.16 909.56 1097.67 870.527 1119.63 C 841.579 1135.71 807.402 1139.54 775.612 1130.27 C 737.185 1119.39 710.307 1093.88 689.442 1060.06 C 688.275 1058.17 687.905 1056.73 687.437 1054.61 L 688.105 1052.51 L 689.588 1051.79 z"/>
<path transform="translate(0,0)" fill="rgb(207,182,213)" d="M 944.335 1006.28 C 947.099 1011.19 946.469 1012.13 944.755 1018.59 C 933.464 1061.16 909.56 1097.67 870.527 1119.63 C 841.579 1135.71 807.402 1139.54 775.612 1130.27 C 737.185 1119.39 710.307 1093.88 689.442 1060.06 C 688.275 1058.17 687.905 1056.73 687.437 1054.61 L 688.105 1052.51 L 689.588 1051.79 C 690.491 1052.62 702.532 1067.45 704.405 1069.57 C 720.009 1087.37 739.919 1100.88 762.232 1108.8 C 794.509 1120.45 830.102 1118.73 861.105 1104.02 C 903.416 1084.2 928.962 1049.29 944.335 1006.28 z"/>
<path transform="translate(0,0)" fill="rgb(83,54,94)" d="M 676.886 959.469 C 676.369 915.444 687.567 864.173 721.354 833.404 C 842.348 723.22 980.533 881.748 923.572 1010.79 C 907.319 1058.51 860.745 1096.86 809.749 1098.66 C 734.793 1101.31 679.667 1029.26 676.886 959.469 z"/>
<path transform="translate(0,0)" fill="url(#Gradient1)" d="M 676.886 959.469 C 676.369 915.444 687.567 864.173 721.354 833.404 C 842.348 723.22 980.533 881.748 923.572 1010.79 C 915.956 1014.5 914.968 1024.65 901.009 1033.3 C 888.602 1034.93 887.049 1025.71 876.785 1038.65 C 873.059 1039.38 874.597 1039.8 871.768 1038.41 C 874.536 1031.08 883.967 1027.55 884.416 1019 C 902.862 985.394 908.813 962.886 902.966 924.131 C 888.194 826.216 769.21 791.592 719.842 886.075 C 703.639 917.418 700.368 953.864 710.731 987.592 C 715.392 1002.39 721.18 1013.12 729.667 1025.93 C 728.727 1027.09 729.38 1026.48 727.44 1027.41 C 722.627 1026.94 718.616 1022.75 715.171 1019.34 C 708.055 1012.16 701.81 1004.16 696.568 995.517 C 691.627 987.193 682.41 963.106 676.886 959.469 z"/>
<path transform="translate(0,0)" fill="rgb(83,54,94)" d="M 685.619 940.289 C 688.539 939.009 691.924 939.416 694.458 941.352 C 696.991 943.288 698.273 946.447 697.805 949.601 C 697.336 952.755 695.192 955.405 692.205 956.522 C 687.761 958.183 682.801 956.005 681.018 951.608 C 679.234 947.212 681.274 942.194 685.619 940.289 z"/>
<path transform="translate(0,0)" fill="rgb(83,54,94)" d="M 723.351 845.474 C 728.1 845.186 732.19 848.789 732.503 853.537 C 732.816 858.284 729.236 862.393 724.491 862.733 C 719.708 863.075 715.559 859.461 715.243 854.676 C 714.927 849.891 718.565 845.763 723.351 845.474 z"/>
<path transform="translate(0,0)" fill="rgb(83,54,94)" d="M 882.061 845.447 C 884.918 844.148 888.257 844.514 890.764 846.403 C 893.271 848.291 894.546 851.398 894.087 854.503 C 893.627 857.608 891.507 860.213 888.561 861.295 C 884.235 862.882 879.427 860.765 877.679 856.501 C 875.93 852.237 877.866 847.354 882.061 845.447 z"/>
<path transform="translate(0,0)" fill="rgb(83,54,94)" d="M 802.288 805.551 C 806.719 804.276 811.36 806.762 812.753 811.158 C 814.146 815.554 811.784 820.26 807.427 821.769 C 804.503 822.782 801.26 822.128 798.957 820.061 C 796.654 817.995 795.655 814.841 796.347 811.825 C 797.039 808.809 799.314 806.407 802.288 805.551 z"/>
<path transform="translate(0,0)" fill="rgb(83,54,94)" d="M 918.741 940.226 C 923.309 939.172 927.866 942.024 928.913 946.594 C 929.96 951.164 927.1 955.716 922.529 956.756 C 917.968 957.794 913.428 954.942 912.383 950.382 C 911.338 945.823 914.183 941.278 918.741 940.226 z"/>
<path transform="translate(0,0)" fill="rgb(213,143,156)" d="M 676.886 959.469 C 682.41 963.106 691.627 987.193 696.568 995.517 C 701.81 1004.16 708.055 1012.16 715.171 1019.34 C 718.616 1022.75 722.627 1026.94 727.44 1027.41 C 729.38 1026.48 728.727 1027.09 729.667 1025.93 C 765.275 1064.3 804.202 1077.44 851.851 1051.33 C 867.197 1040.47 872.754 1033.78 884.416 1019 C 883.967 1027.55 874.536 1031.08 871.768 1038.41 C 874.597 1039.8 873.059 1039.38 876.785 1038.65 C 887.049 1025.71 888.602 1034.93 901.009 1033.3 C 914.968 1024.65 915.956 1014.5 923.572 1010.79 C 907.319 1058.51 860.745 1096.86 809.749 1098.66 C 734.793 1101.31 679.667 1029.26 676.886 959.469 z"/>
<path transform="translate(0,0)" fill="rgb(247,177,152)" d="M 851.851 1051.33 C 867.197 1040.47 872.754 1033.78 884.416 1019 C 883.967 1027.55 874.536 1031.08 871.768 1038.41 C 874.597 1039.8 873.059 1039.38 876.785 1038.65 C 887.049 1025.71 888.602 1034.93 901.009 1033.3 C 899.666 1034.26 897.212 1036.19 895.82 1036.73 C 896.113 1049.1 892.171 1053.14 880.038 1049.16 C 876.801 1050.48 854.996 1051.96 851.851 1051.33 z"/>
<path transform="translate(0,0)" fill="rgb(83,54,94)" d="M 880.038 1049.16 C 875.555 1036 884.31 1029.52 895.82 1036.73 C 896.113 1049.1 892.171 1053.14 880.038 1049.16 z"/>
<path transform="translate(0,0)" fill="rgb(83,54,94)" d="M 723.087 1033.61 C 727.923 1032.99 732.358 1036.38 733.026 1041.21 C 733.694 1046.04 730.346 1050.5 725.523 1051.21 C 720.636 1051.94 716.097 1048.54 715.42 1043.64 C 714.743 1038.75 718.187 1034.24 723.087 1033.61 z"/>
<path transform="translate(0,0)" fill="rgb(83,54,94)" d="M 801.443 1074.32 C 804.393 1073.09 807.785 1073.63 810.206 1075.72 C 812.626 1077.8 813.661 1081.08 812.877 1084.18 C 812.094 1087.28 809.628 1089.67 806.506 1090.35 C 802.239 1091.29 797.961 1088.82 796.645 1084.65 C 795.329 1080.49 797.411 1076 801.443 1074.32 z"/>
<path transform="translate(0,0)" fill="rgb(192,219,228)" d="M 757.709 1028.86 C 742.227 1017.81 728.775 990.976 724.801 972.717 C 718.617 944.3 723.679 910.592 739.774 886.093 C 763.934 849.318 806.605 836.017 844.645 860.732 C 868.452 878.233 881.781 900.491 886.219 929.995 C 890.976 959.709 883.695 990.095 865.989 1014.43 C 839.332 1050.37 792.306 1059.15 757.709 1028.86 z"/>
<path transform="translate(0,0)" fill="rgb(152,171,205)" d="M 757.709 1028.86 C 742.227 1017.81 728.775 990.976 724.801 972.717 C 718.617 944.3 723.679 910.592 739.774 886.093 C 763.934 849.318 806.605 836.017 844.645 860.732 C 838.587 862.722 826.261 862.778 819.499 863.737 C 752.354 873.262 723.069 955.078 750.165 1012.07 C 751.98 1015.89 757.077 1025.46 757.709 1028.86 z"/>
<path transform="translate(0,0)" fill="rgb(255,253,250)" d="M 827.28 872.222 C 854.073 875.169 875.884 910.096 844.011 918.324 C 821.017 915.499 793.582 879.491 827.28 872.222 z"/>
<path transform="translate(0,0)" fill="rgb(255,253,250)" d="M 857.716 927.756 C 863.284 926.383 868.903 929.814 870.228 935.393 C 871.553 940.973 868.075 946.563 862.484 947.841 C 856.96 949.103 851.452 945.676 850.142 940.162 C 848.833 934.649 852.214 929.111 857.716 927.756 z"/>
<path transform="translate(0,0)" fill="rgb(83,54,94)" d="M 1170.68 761.761 C 1247.79 759.445 1312.13 820.167 1314.28 897.281 C 1316.42 974.394 1255.56 1038.6 1178.44 1040.58 C 1101.56 1042.55 1037.6 981.915 1035.46 905.041 C 1033.32 828.167 1093.81 764.069 1170.68 761.761 z"/>
<path transform="translate(0,0)" fill="rgb(255,253,250)" d="M 1162.7 786.543 C 1225.79 779.832 1282.42 825.425 1289.32 888.492 C 1296.23 951.559 1250.82 1008.33 1187.77 1015.43 C 1124.45 1022.57 1067.37 976.91 1060.43 913.564 C 1053.49 850.217 1099.33 793.284 1162.7 786.543 z"/>
<path transform="translate(0,0)" fill="rgb(83,54,94)" d="M 1171.24 821.928 C 1214.91 819.848 1252.03 853.466 1254.28 897.122 C 1256.53 940.778 1223.06 978.037 1179.42 980.459 C 1135.53 982.895 1098.01 949.197 1095.75 905.297 C 1093.49 861.398 1127.33 824.02 1171.24 821.928 z"/>
<path transform="translate(0,0)" fill="rgb(255,253,250)" d="M 1194.97 844.515 C 1208.18 840.782 1221.92 848.471 1225.64 861.683 C 1229.36 874.895 1221.67 888.624 1208.45 892.339 C 1195.25 896.051 1181.54 888.363 1177.82 875.162 C 1174.1 861.962 1181.77 848.244 1194.97 844.515 z"/>
<path transform="translate(0,0)" fill="rgb(247,177,152)" d="M 1104.92 1043.41 C 1119.8 1042 1141.53 1044.47 1154.95 1051.55 C 1164.67 1056.69 1172.72 1068.49 1164.85 1078.72 C 1155.99 1090.23 1139.42 1092.59 1126.1 1094.92 C 1107.17 1095.63 1087.05 1095.38 1070.66 1084.37 C 1062.62 1078.97 1056.06 1068.17 1063.89 1059.61 C 1073.96 1048.61 1090.64 1044.99 1104.92 1043.41 z"/>
<path transform="translate(0,0)" fill="rgb(83,54,94)" d="M 1333.89 974.97 C 1354.61 974.787 1348.4 1001.16 1369.43 1008.15 C 1374.42 1009.82 1380.94 1010.46 1386.1 1010.26 C 1411.87 1009.27 1407.59 984.786 1423.66 975.906 C 1425.67 974.867 1429.8 973.858 1431.73 975.447 C 1440.8 982.919 1437.15 994.858 1433.41 1002.99 C 1420.81 1024.65 1401.42 1036.79 1375.91 1034.04 C 1360.51 1032.25 1346.42 1024.51 1336.63 1012.49 C 1327.09 1000.86 1319.88 985.864 1333.89 974.97 z"/>
<path transform="translate(0,0)" fill="rgb(207,182,213)" d="M 1657.44 1045.75 C 1657.68 1046.8 1657.84 1048.33 1657.53 1049.34 C 1634.71 1124.34 1581.94 1191.08 1521.18 1239.44 C 1370.81 1359.14 1164.18 1401.75 975.866 1382.24 C 797.42 1363.74 628.401 1289.85 514.02 1148.75 C 493.019 1120.81 485.763 1107.81 469.479 1077.54 C 488.294 1092.8 501.34 1106.74 522.454 1122.42 C 713.577 1262.3 981.924 1295.9 1211.58 1265.36 C 1370.3 1244.25 1558.13 1177 1657.44 1045.75 z"/>
<path transform="translate(0,0)" fill="rgb(255,253,250)" d="M 1060.44 551.429 C 1073.12 550.302 1096.08 550.747 1109.05 550.847 C 1220.52 551.477 1330.14 579.425 1428.31 632.244 C 1515.93 679.766 1596.59 751.318 1639.02 843.024 C 1647.18 860.654 1653.7 879.284 1659.22 897.895 C 1641.87 875.814 1644.21 873.19 1634.98 846.397 C 1625.7 819.472 1606.91 790.911 1581.46 776.595 C 1561.8 765.664 1538.6 763.029 1516.99 769.276 C 1392.36 696.643 1249.04 661.106 1105.23 658.697 C 916.616 652.01 712.515 701.417 558.1 812.666 C 542.559 823.7 527.624 835.563 513.361 848.206 C 502.381 858.133 492.223 868.73 481.178 878.636 C 502.527 845.018 517.609 822.182 544.343 792.801 C 679.671 644.077 860.618 561.552 1060.44 551.429 z"/>
<path transform="translate(0,0)" fill="rgb(213,143,156)" d="M 865.02 1388.21 C 982.432 1416.5 1126.58 1419.39 1244.48 1392.19 C 1241.79 1401.25 1238.73 1411.49 1234.78 1420.03 C 1226.01 1442.47 1207.77 1473.88 1184.87 1481.6 C 1126.28 1501.36 1004.93 1499.65 947.017 1487.3 C 938.744 1485.34 927.076 1482.56 919.771 1478.16 C 887.8 1458.89 874.647 1421.43 865.02 1388.21 z"/>
<path transform="translate(0,0)" fill="rgb(247,177,152)" d="M 947.017 1487.3 C 941.752 1441.76 996.702 1445.23 1027.18 1445.17 C 1082.87 1445.08 1137.54 1441.4 1192.12 1429.89 C 1205.54 1427.06 1221.53 1421.46 1234.78 1420.03 C 1226.01 1442.47 1207.77 1473.88 1184.87 1481.6 C 1126.28 1501.36 1004.93 1499.65 947.017 1487.3 z"/>
<path transform="translate(0,0)" fill="rgb(255,253,250)" d="M 1531.19 790.169 C 1636.24 782.606 1658.37 995.998 1560.23 1016.9 C 1455.94 1025 1432.68 812.935 1531.19 790.169 z"/>
<path transform="translate(0,0)" fill="rgb(83,54,94)" d="M 1532.94 826.131 C 1601.45 817.981 1629.26 956.256 1553.72 981.568 C 1481.38 990.501 1457.89 847.536 1532.94 826.131 z"/>
<path transform="translate(0,0)" fill="rgb(255,253,250)" d="M 1556.21 847.091 C 1582.64 845.478 1588.94 880.847 1565.55 893.54 C 1539.82 896.969 1531.87 859.138 1556.21 847.091 z"/>
<path transform="translate(0,0)" fill="rgb(213,143,156)" d="M 467.696 1218.1 C 472.679 1196.94 480.107 1176.44 489.831 1157 C 522.182 1198.61 544.823 1220.74 584.216 1254.11 C 564.179 1277.74 542.171 1300.25 509.061 1299.4 C 452.08 1297.66 456.586 1260.35 467.696 1218.1 z"/>
<path transform="translate(0,0)" fill="rgb(247,177,152)" d="M 467.696 1218.1 C 473.464 1224.03 478.017 1223.68 485.771 1226.66 C 526.02 1242.12 555.09 1264.76 509.061 1299.4 C 452.08 1297.66 456.586 1260.35 467.696 1218.1 z"/>
<path transform="translate(0,0)" fill="rgb(247,177,152)" d="M 462.133 709.985 C 465.435 699.625 468.902 692.158 479.433 687.391 C 521.6 668.302 553.348 692.274 579.801 722.588 L 561.24 740.759 C 552.654 749.273 539.551 761.993 531.89 771.061 C 516.782 787.823 502.122 806.311 488.022 823.988 C 477.324 801.034 467.599 769.957 463.442 744.842 C 460.271 732.681 460.942 722.298 462.133 709.985 z"/>
<path transform="translate(0,0)" fill="rgb(252,205,183)" d="M 462.133 709.985 C 465.435 699.625 468.902 692.158 479.433 687.391 C 521.6 668.302 553.348 692.274 579.801 722.588 L 561.24 740.759 C 560.195 739.548 560.037 739.693 559.65 738.433 C 555.627 725.346 550.371 718.284 539.702 709.68 C 524.273 697.237 503.124 694.917 484.764 701.571 C 477.868 704.07 471.272 709.63 463.306 709.864 C 462.915 709.904 462.524 709.945 462.133 709.985 z"/>
<path transform="translate(0,0)" fill="rgb(213,143,156)" d="M 463.442 744.842 C 478.106 759.664 495.613 772.718 517.302 772.226 C 522.326 772.112 527.072 771.131 531.89 771.061 C 516.782 787.823 502.122 806.311 488.022 823.988 C 477.324 801.034 467.599 769.957 463.442 744.842 z"/>
<path transform="translate(0,0)" fill="rgb(247,177,152)" d="M 386.52 1000.67 C 368.42 991.388 387.316 977.923 398.783 974.559 C 432.942 964.419 470.672 961.466 505.956 966.749 C 519.721 968.811 531.053 972.025 535.494 986.211 C 534.948 991.407 534.133 999.954 529.055 1002.75 C 500.149 1018.7 456.283 1016.37 424.892 1011.18 C 415.48 1009.63 391.582 1005.57 386.52 1000.67 z"/>
<path transform="translate(0,0)" fill="rgb(252,205,183)" d="M 386.52 1000.67 C 368.42 991.388 387.316 977.923 398.783 974.559 C 432.942 964.419 470.672 961.466 505.956 966.749 C 519.721 968.811 531.053 972.025 535.494 986.211 C 495.272 978.179 452.712 977.974 412.476 985.921 C 404.871 987.423 387.648 989.148 384.893 996.762 C 386.436 999.26 386.515 998.371 386.52 1000.67 z"/>
</svg>